{
	"patcher" : 	{
		"fileversion" : 1,
		"appversion" : 		{
			"major" : 8,
			"minor" : 2,
			"revision" : 1,
			"architecture" : "x64",
			"modernui" : 1
		}
,
		"classnamespace" : "box",
		"rect" : [ 35.0, 85.0, 1570.0, 920.0 ],
		"bglocked" : 0,
		"openinpresentation" : 0,
		"default_fontsize" : 12.0,
		"default_fontface" : 0,
		"default_fontname" : "Arial",
		"gridonopen" : 1,
		"gridsize" : [ 15.0, 15.0 ],
		"gridsnaponopen" : 1,
		"objectsnaponopen" : 1,
		"statusbarvisible" : 2,
		"toolbarvisible" : 1,
		"lefttoolbarpinned" : 0,
		"toptoolbarpinned" : 0,
		"righttoolbarpinned" : 0,
		"bottomtoolbarpinned" : 0,
		"toolbars_unpinned_last_save" : 0,
		"tallnewobj" : 0,
		"boxanimatetime" : 200,
		"enablehscroll" : 1,
		"enablevscroll" : 1,
		"devicewidth" : 0.0,
		"description" : "",
		"digest" : "",
		"tags" : "",
		"style" : "",
		"subpatcher_template" : "",
		"assistshowspatchername" : 0,
		"boxes" : [ 			{
				"box" : 				{
					"id" : "obj-139",
					"maxclass" : "message",
					"numinlets" : 2,
					"numoutlets" : 1,
					"outlettype" : [ "" ],
					"patching_rect" : [ 347.0, 256.0, 29.5, 22.0 ],
					"text" : "0"
				}

			}
, 			{
				"box" : 				{
					"id" : "obj-137",
					"maxclass" : "newobj",
					"numinlets" : 1,
					"numoutlets" : 1,
					"outlettype" : [ "signal" ],
					"patching_rect" : [ 214.5, 288.0, 31.0, 22.0 ],
					"text" : "sig~"
				}

			}
, 			{
				"box" : 				{
					"id" : "obj-128",
					"maxclass" : "message",
					"numinlets" : 2,
					"numoutlets" : 1,
					"outlettype" : [ "" ],
					"patching_rect" : [ 171.5, 321.0, 35.0, 22.0 ],
					"text" : "2 0 0"
				}

			}
, 			{
				"box" : 				{
					"id" : "obj-127",
					"maxclass" : "message",
					"numinlets" : 2,
					"numoutlets" : 1,
					"outlettype" : [ "" ],
					"patching_rect" : [ 138.0, 321.0, 35.0, 22.0 ],
					"text" : "1 0 0"
				}

			}
, 			{
				"box" : 				{
					"id" : "obj-125",
					"maxclass" : "message",
					"numinlets" : 2,
					"numoutlets" : 1,
					"outlettype" : [ "" ],
					"patching_rect" : [ 98.5, 321.0, 35.0, 22.0 ],
					"text" : "0 0 0"
				}

			}
, 			{
				"box" : 				{
					"id" : "obj-122",
					"maxclass" : "newobj",
					"numinlets" : 4,
					"numoutlets" : 4,
					"outlettype" : [ "bang", "bang", "bang", "" ],
					"patching_rect" : [ 21.5, 331.0, 54.0, 22.0 ],
					"text" : "sel 1 2 3"
				}

			}
, 			{
				"box" : 				{
					"id" : "obj-119",
					"maxclass" : "message",
					"numinlets" : 2,
					"numoutlets" : 1,
					"outlettype" : [ "" ],
					"patching_rect" : [ 87.5, 363.0, 35.0, 22.0 ],
					"text" : "2 0 1"
				}

			}
, 			{
				"box" : 				{
					"id" : "obj-117",
					"maxclass" : "message",
					"numinlets" : 2,
					"numoutlets" : 1,
					"outlettype" : [ "" ],
					"patching_rect" : [ 46.5, 359.0, 35.0, 22.0 ],
					"text" : "0 0 1"
				}

			}
, 			{
				"box" : 				{
					"columns" : 3,
					"id" : "obj-114",
					"maxclass" : "matrixctrl",
					"numinlets" : 1,
					"numoutlets" : 2,
					"outlettype" : [ "list", "list" ],
					"parameter_enable" : 0,
					"patching_rect" : [ 0.5, 548.0, 209.0, 43.0 ],
					"rows" : 2
				}

			}
, 			{
				"box" : 				{
					"id" : "obj-113",
					"maxclass" : "message",
					"numinlets" : 2,
					"numoutlets" : 1,
					"outlettype" : [ "" ],
					"patching_rect" : [ 9.5, 363.0, 35.0, 22.0 ],
					"text" : "1 0 1"
				}

			}
, 			{
				"box" : 				{
					"id" : "obj-89",
					"maxclass" : "newobj",
					"numinlets" : 6,
					"numoutlets" : 1,
					"outlettype" : [ "" ],
					"patching_rect" : [ 21.5, 274.0, 83.0, 22.0 ],
					"text" : "scale 0. 1. 0 3"
				}

			}
, 			{
				"box" : 				{
					"id" : "obj-72",
					"maxclass" : "newobj",
					"numinlets" : 2,
					"numoutlets" : 3,
					"outlettype" : [ "signal", "signal", "list" ],
					"patching_rect" : [ 687.0, 531.0, 392.0, 22.0 ],
					"text" : "matrix~"
				}

			}
, 			{
				"box" : 				{
					"id" : "obj-26",
					"lastchannelcount" : 0,
					"maxclass" : "live.gain~",
					"numinlets" : 2,
					"numoutlets" : 5,
					"outlettype" : [ "signal", "signal", "", "float", "list" ],
					"parameter_enable" : 1,
					"patching_rect" : [ 38.5, 753.0, 48.0, 136.0 ],
					"saved_attribute_attributes" : 					{
						"valueof" : 						{
							"parameter_longname" : "live.gain~",
							"parameter_mmax" : 6.0,
							"parameter_mmin" : -70.0,
							"parameter_shortname" : "live.gain~",
							"parameter_type" : 0,
							"parameter_unitstyle" : 4
						}

					}
,
					"varname" : "live.gain~"
				}

			}
, 			{
				"box" : 				{
					"id" : "obj-21",
					"maxclass" : "newobj",
					"numinlets" : 3,
					"numoutlets" : 2,
					"outlettype" : [ "signal", "list" ],
					"patching_rect" : [ 46.5, 706.0, 68.0, 22.0 ],
					"text" : "matrix~ 3 1"
				}

			}
, 			{
				"box" : 				{
					"id" : "obj-14",
					"maxclass" : "newobj",
					"numinlets" : 6,
					"numoutlets" : 1,
					"outlettype" : [ "" ],
					"patching_rect" : [ 214.5, 256.0, 83.0, 22.0 ],
					"text" : "scale 0. 1. 0 4"
				}

			}
, 			{
				"box" : 				{
					"id" : "obj-31",
					"maxclass" : "comment",
					"numinlets" : 1,
					"numoutlets" : 0,
					"patching_rect" : [ 445.5, 214.0, 50.0, 20.0 ],
					"text" : "Area"
				}

			}
, 			{
				"box" : 				{
					"id" : "obj-9",
					"maxclass" : "comment",
					"numinlets" : 1,
					"numoutlets" : 0,
					"patching_rect" : [ 387.5, 214.0, 50.0, 20.0 ],
					"text" : "\"Mode\""
				}

			}
, 			{
				"box" : 				{
					"format" : 6,
					"id" : "obj-32",
					"maxclass" : "flonum",
					"numinlets" : 1,
					"numoutlets" : 2,
					"outlettype" : [ "", "bang" ],
					"parameter_enable" : 0,
					"patching_rect" : [ 445.5, 187.0, 50.0, 22.0 ]
				}

			}
, 			{
				"box" : 				{
					"format" : 6,
					"id" : "obj-33",
					"maxclass" : "flonum",
					"numinlets" : 1,
					"numoutlets" : 2,
					"outlettype" : [ "", "bang" ],
					"parameter_enable" : 0,
					"patching_rect" : [ 387.5, 187.0, 50.0, 22.0 ]
				}

			}
, 			{
				"box" : 				{
					"format" : 6,
					"id" : "obj-34",
					"maxclass" : "flonum",
					"numinlets" : 1,
					"numoutlets" : 2,
					"outlettype" : [ "", "bang" ],
					"parameter_enable" : 0,
					"patching_rect" : [ 326.5, 187.0, 50.0, 22.0 ]
				}

			}
, 			{
				"box" : 				{
					"format" : 6,
					"id" : "obj-10",
					"maxclass" : "flonum",
					"numinlets" : 1,
					"numoutlets" : 2,
					"outlettype" : [ "", "bang" ],
					"parameter_enable" : 0,
					"patching_rect" : [ 266.5, 187.0, 50.0, 22.0 ]
				}

			}
, 			{
				"box" : 				{
					"id" : "obj-60",
					"maxclass" : "comment",
					"numinlets" : 1,
					"numoutlets" : 0,
					"patching_rect" : [ 326.5, 214.0, 50.0, 20.0 ],
					"text" : "Sustain"
				}

			}
, 			{
				"box" : 				{
					"id" : "obj-59",
					"maxclass" : "comment",
					"numinlets" : 1,
					"numoutlets" : 0,
					"patching_rect" : [ 266.5, 214.0, 47.0, 20.0 ],
					"text" : "Speed"
				}

			}
, 			{
				"box" : 				{
					"id" : "obj-58",
					"linecount" : 2,
					"maxclass" : "comment",
					"numinlets" : 1,
					"numoutlets" : 0,
					"patching_rect" : [ 214.5, 214.0, 47.0, 34.0 ],
					"text" : "Y cur pos"
				}

			}
, 			{
				"box" : 				{
					"id" : "obj-57",
					"linecount" : 2,
					"maxclass" : "comment",
					"numinlets" : 1,
					"numoutlets" : 0,
					"patching_rect" : [ 159.5, 214.0, 47.0, 34.0 ],
					"text" : "X cur pos"
				}

			}
, 			{
				"box" : 				{
					"id" : "obj-52",
					"linecount" : 2,
					"maxclass" : "comment",
					"numinlets" : 1,
					"numoutlets" : 0,
					"patching_rect" : [ 98.5, 214.0, 47.0, 34.0 ],
					"text" : "Y start Pos"
				}

			}
, 			{
				"box" : 				{
					"id" : "obj-51",
					"linecount" : 2,
					"maxclass" : "comment",
					"numinlets" : 1,
					"numoutlets" : 0,
					"patching_rect" : [ 38.5, 214.0, 47.0, 34.0 ],
					"text" : "X start Pos"
				}

			}
, 			{
				"box" : 				{
					"id" : "obj-35",
					"maxclass" : "newobj",
					"numinlets" : 1,
					"numoutlets" : 1,
					"outlettype" : [ "bang" ],
					"patching_rect" : [ 33.0, 13.0, 58.0, 22.0 ],
					"text" : "loadbang"
				}

			}
, 			{
				"box" : 				{
					"format" : 6,
					"id" : "obj-36",
					"maxclass" : "flonum",
					"numinlets" : 1,
					"numoutlets" : 2,
					"outlettype" : [ "", "bang" ],
					"parameter_enable" : 0,
					"patching_rect" : [ 214.5, 187.0, 50.0, 22.0 ]
				}

			}
, 			{
				"box" : 				{
					"format" : 6,
					"id" : "obj-101",
					"maxclass" : "flonum",
					"numinlets" : 1,
					"numoutlets" : 2,
					"outlettype" : [ "", "bang" ],
					"parameter_enable" : 0,
					"patching_rect" : [ 159.5, 187.0, 50.0, 22.0 ]
				}

			}
, 			{
				"box" : 				{
					"format" : 6,
					"id" : "obj-37",
					"maxclass" : "flonum",
					"numinlets" : 1,
					"numoutlets" : 2,
					"outlettype" : [ "", "bang" ],
					"parameter_enable" : 0,
					"patching_rect" : [ 98.5, 187.0, 50.0, 22.0 ]
				}

			}
, 			{
				"box" : 				{
					"format" : 6,
					"id" : "obj-70",
					"maxclass" : "flonum",
					"numinlets" : 1,
					"numoutlets" : 2,
					"outlettype" : [ "", "bang" ],
					"parameter_enable" : 0,
					"patching_rect" : [ 38.5, 187.0, 50.0, 22.0 ]
				}

			}
, 			{
				"box" : 				{
					"id" : "obj-39",
					"maxclass" : "newobj",
					"numinlets" : 1,
					"numoutlets" : 8,
					"outlettype" : [ "float", "float", "float", "float", "float", "float", "float", "float" ],
					"patching_rect" : [ 38.5, 147.0, 101.0, 22.0 ],
					"text" : "unpack f f f f f f f f"
				}

			}
, 			{
				"box" : 				{
					"id" : "obj-40",
					"maxclass" : "newobj",
					"numinlets" : 2,
					"numoutlets" : 2,
					"outlettype" : [ "", "" ],
					"patching_rect" : [ 38.5, 115.0, 91.0, 22.0 ],
					"text" : "route /channel1"
				}

			}
, 			{
				"box" : 				{
					"id" : "obj-41",
					"maxclass" : "message",
					"numinlets" : 2,
					"numoutlets" : 1,
					"outlettype" : [ "" ],
					"patching_rect" : [ 38.5, 49.0, 59.0, 22.0 ],
					"text" : "port 2222"
				}

			}
, 			{
				"box" : 				{
					"fontname" : "Arial",
					"fontsize" : 13.0,
					"id" : "obj-43",
					"maxclass" : "newobj",
					"numinlets" : 1,
					"numoutlets" : 1,
					"outlettype" : [ "" ],
					"patching_rect" : [ 38.5, 82.0, 105.0, 23.0 ],
					"text" : "udpreceive 2222"
				}

			}
, 			{
				"box" : 				{
					"id" : "obj-8",
					"maxclass" : "ezdac~",
					"numinlets" : 2,
					"numoutlets" : 0,
					"patching_rect" : [ 33.5, 900.0, 45.0, 45.0 ]
				}

			}
, 			{
				"box" : 				{
					"basictuning" : 0,
					"clipheight" : 29.666666666666668,
					"data" : 					{
						"clips" : [ 							{
								"absolutepath" : "Snare 01.wav",
								"filename" : "Snare 01.wav",
								"filekind" : "audiofile",
								"id" : "u065005966",
								"selection" : [ 0.0, 1.0 ],
								"loop" : 0,
								"content_state" : 								{

								}

							}
, 							{
								"absolutepath" : "epno.aiff",
								"filename" : "epno.aiff",
								"filekind" : "audiofile",
								"id" : "u256005978",
								"selection" : [ 0.0, 1.0 ],
								"loop" : 0,
								"content_state" : 								{

								}

							}
, 							{
								"absolutepath" : "vibes-a1.aif",
								"filename" : "vibes-a1.aif",
								"filekind" : "audiofile",
								"id" : "u920005990",
								"selection" : [ 0.0, 1.0 ],
								"loop" : 0,
								"content_state" : 								{

								}

							}
 ]
					}
,
					"followglobaltempo" : 0,
					"formantcorrection" : 0,
					"id" : "obj-5",
					"maxclass" : "playlist~",
					"mode" : 0,
					"numinlets" : 1,
					"numoutlets" : 5,
					"originallength" : [ 0 ],
					"originaltempo" : 0,
					"outlettype" : [ "signal", "signal", "signal", "", "dictionary" ],
					"parameter_enable" : 0,
					"patching_rect" : [ 600.5, 363.0, 150.0, 92.0 ],
					"pitchcorrection" : 0,
					"quality" : 0,
					"timestretch" : [ 0 ]
				}

			}
, 			{
				"box" : 				{
					"basictuning" : 0,
					"clipheight" : 29.666666666666668,
					"data" : 					{
						"clips" : [ 							{
								"absolutepath" : "cello-f2.aif",
								"filename" : "cello-f2.aif",
								"filekind" : "audiofile",
								"id" : "u238004279",
								"selection" : [ 0.0, 0.357894736842105 ],
								"loop" : 0,
								"content_state" : 								{

								}

							}
, 							{
								"absolutepath" : "Clap 01.wav",
								"filename" : "Clap 01.wav",
								"filekind" : "audiofile",
								"id" : "u402004267",
								"selection" : [ 0.0, 1.0 ],
								"loop" : 0,
								"content_state" : 								{

								}

							}
, 							{
								"absolutepath" : "bass.aiff",
								"filename" : "bass.aiff",
								"filekind" : "audiofile",
								"id" : "u880005945",
								"selection" : [ 0.0, 1.0 ],
								"loop" : 0,
								"content_state" : 								{

								}

							}
 ]
					}
,
					"followglobaltempo" : 0,
					"formantcorrection" : 0,
					"id" : "obj-4",
					"maxclass" : "playlist~",
					"mode" : 0,
					"numinlets" : 1,
					"numoutlets" : 5,
					"originallength" : [ 0 ],
					"originaltempo" : 0,
					"outlettype" : [ "signal", "signal", "signal", "", "dictionary" ],
					"parameter_enable" : 0,
					"patching_rect" : [ 438.5, 363.0, 150.0, 92.0 ],
					"pitchcorrection" : 0,
					"quality" : 0,
					"timestretch" : [ 0 ]
				}

			}
, 			{
				"box" : 				{
					"basictuning" : 440,
					"clipheight" : 29.666666666666668,
					"data" : 					{
						"clips" : [ 							{
								"absolutepath" : "bd+hh.aiff",
								"filename" : "bd+hh.aiff",
								"filekind" : "audiofile",
								"id" : "u382005900",
								"selection" : [ 0.0, 1.0 ],
								"loop" : 0,
								"content_state" : 								{

								}

							}
, 							{
								"absolutepath" : "snare.aiff",
								"filename" : "snare.aiff",
								"filekind" : "audiofile",
								"id" : "u079005912",
								"selection" : [ 0.0, 1.0 ],
								"loop" : 0,
								"content_state" : 								{

								}

							}
, 							{
								"absolutepath" : "cym.aiff",
								"filename" : "cym.aiff",
								"filekind" : "audiofile",
								"id" : "u905005933",
								"selection" : [ 0.0, 1.0 ],
								"loop" : 0,
								"content_state" : 								{

								}

							}
 ]
					}
,
					"followglobaltempo" : 0,
					"formantcorrection" : 0,
					"id" : "obj-3",
					"maxclass" : "playlist~",
					"mode" : "basic",
					"numinlets" : 1,
					"numoutlets" : 5,
					"originallength" : [ 0.0, "ticks" ],
					"originaltempo" : 120.0,
					"outlettype" : [ "signal", "signal", "signal", "", "dictionary" ],
					"parameter_enable" : 0,
					"patching_rect" : [ 276.5, 363.0, 150.0, 92.0 ],
					"pitchcorrection" : 0,
					"quality" : "basic",
					"timestretch" : [ 0 ]
				}

			}
 ],
		"lines" : [ 			{
				"patchline" : 				{
					"destination" : [ "obj-89", 0 ],
					"source" : [ "obj-101", 0 ]
				}

			}
, 			{
				"patchline" : 				{
					"destination" : [ "obj-114", 0 ],
					"source" : [ "obj-113", 0 ]
				}

			}
, 			{
				"patchline" : 				{
					"destination" : [ "obj-21", 0 ],
					"source" : [ "obj-114", 0 ]
				}

			}
, 			{
				"patchline" : 				{
					"destination" : [ "obj-114", 0 ],
					"source" : [ "obj-117", 0 ]
				}

			}
, 			{
				"patchline" : 				{
					"destination" : [ "obj-114", 0 ],
					"source" : [ "obj-119", 0 ]
				}

			}
, 			{
				"patchline" : 				{
					"destination" : [ "obj-113", 0 ],
					"source" : [ "obj-122", 0 ]
				}

			}
, 			{
				"patchline" : 				{
					"destination" : [ "obj-117", 0 ],
					"source" : [ "obj-122", 1 ]
				}

			}
, 			{
				"patchline" : 				{
					"destination" : [ "obj-119", 0 ],
					"source" : [ "obj-122", 2 ]
				}

			}
, 			{
				"patchline" : 				{
					"destination" : [ "obj-125", 0 ],
					"order" : 2,
					"source" : [ "obj-122", 3 ]
				}

			}
, 			{
				"patchline" : 				{
					"destination" : [ "obj-127", 0 ],
					"order" : 1,
					"source" : [ "obj-122", 3 ]
				}

			}
, 			{
				"patchline" : 				{
					"destination" : [ "obj-128", 0 ],
					"order" : 0,
					"source" : [ "obj-122", 3 ]
				}

			}
, 			{
				"patchline" : 				{
					"destination" : [ "obj-114", 0 ],
					"source" : [ "obj-125", 0 ]
				}

			}
, 			{
				"patchline" : 				{
					"destination" : [ "obj-114", 0 ],
					"midpoints" : [ 9.0, 546.0 ],
					"source" : [ "obj-127", 0 ]
				}

			}
, 			{
				"patchline" : 				{
					"destination" : [ "obj-114", 0 ],
					"source" : [ "obj-128", 0 ]
				}

			}
, 			{
				"patchline" : 				{
					"destination" : [ "obj-3", 0 ],
					"order" : 2,
					"source" : [ "obj-137", 0 ]
				}

			}
, 			{
				"patchline" : 				{
					"destination" : [ "obj-4", 0 ],
					"order" : 1,
					"source" : [ "obj-137", 0 ]
				}

			}
, 			{
				"patchline" : 				{
					"destination" : [ "obj-5", 0 ],
					"order" : 0,
					"source" : [ "obj-137", 0 ]
				}

			}
, 			{
				"patchline" : 				{
					"destination" : [ "obj-137", 0 ],
					"source" : [ "obj-139", 0 ]
				}

			}
, 			{
				"patchline" : 				{
					"destination" : [ "obj-137", 0 ],
					"source" : [ "obj-14", 0 ]
				}

			}
, 			{
				"patchline" : 				{
					"destination" : [ "obj-26", 1 ],
					"order" : 0,
					"source" : [ "obj-21", 0 ]
				}

			}
, 			{
				"patchline" : 				{
					"destination" : [ "obj-26", 0 ],
					"order" : 1,
					"source" : [ "obj-21", 0 ]
				}

			}
, 			{
				"patchline" : 				{
					"destination" : [ "obj-8", 1 ],
					"midpoints" : [ 80.5, 913.0 ],
					"source" : [ "obj-26", 1 ]
				}

			}
, 			{
				"patchline" : 				{
					"destination" : [ "obj-8", 0 ],
					"source" : [ "obj-26", 0 ]
				}

			}
, 			{
				"patchline" : 				{
					"destination" : [ "obj-139", 0 ],
					"source" : [ "obj-3", 3 ]
				}

			}
, 			{
				"patchline" : 				{
					"destination" : [ "obj-21", 0 ],
					"midpoints" : [ 198.0, 558.0 ],
					"source" : [ "obj-3", 0 ]
				}

			}
, 			{
				"patchline" : 				{
					"destination" : [ "obj-41", 0 ],
					"source" : [ "obj-35", 0 ]
				}

			}
, 			{
				"patchline" : 				{
					"destination" : [ "obj-14", 0 ],
					"source" : [ "obj-36", 0 ]
				}

			}
, 			{
				"patchline" : 				{
					"destination" : [ "obj-10", 0 ],
					"midpoints" : [ 94.857142857142861, 177.5, 276.0, 177.5 ],
					"source" : [ "obj-39", 4 ]
				}

			}
, 			{
				"patchline" : 				{
					"destination" : [ "obj-101", 0 ],
					"midpoints" : [ 71.428571428571431, 177.5, 169.0, 177.5 ],
					"source" : [ "obj-39", 2 ]
				}

			}
, 			{
				"patchline" : 				{
					"destination" : [ "obj-32", 0 ],
					"midpoints" : [ 130.0, 177.5, 455.0, 177.5 ],
					"source" : [ "obj-39", 7 ]
				}

			}
, 			{
				"patchline" : 				{
					"destination" : [ "obj-33", 0 ],
					"midpoints" : [ 118.285714285714292, 177.5, 397.0, 177.5 ],
					"source" : [ "obj-39", 6 ]
				}

			}
, 			{
				"patchline" : 				{
					"destination" : [ "obj-34", 0 ],
					"midpoints" : [ 106.571428571428569, 177.5, 336.0, 177.5 ],
					"source" : [ "obj-39", 5 ]
				}

			}
, 			{
				"patchline" : 				{
					"destination" : [ "obj-36", 0 ],
					"midpoints" : [ 83.142857142857139, 177.5, 224.0, 177.5 ],
					"source" : [ "obj-39", 3 ]
				}

			}
, 			{
				"patchline" : 				{
					"destination" : [ "obj-37", 0 ],
					"midpoints" : [ 59.714285714285715, 177.5, 108.0, 177.5 ],
					"source" : [ "obj-39", 1 ]
				}

			}
, 			{
				"patchline" : 				{
					"destination" : [ "obj-70", 0 ],
					"midpoints" : [ 48.0, 177.5, 48.0, 177.5 ],
					"source" : [ "obj-39", 0 ]
				}

			}
, 			{
				"patchline" : 				{
					"destination" : [ "obj-139", 0 ],
					"source" : [ "obj-4", 3 ]
				}

			}
, 			{
				"patchline" : 				{
					"destination" : [ "obj-21", 1 ],
					"source" : [ "obj-4", 0 ]
				}

			}
, 			{
				"patchline" : 				{
					"destination" : [ "obj-39", 0 ],
					"midpoints" : [ 48.0, 148.0, 48.0, 148.0 ],
					"source" : [ "obj-40", 0 ]
				}

			}
, 			{
				"patchline" : 				{
					"destination" : [ "obj-43", 0 ],
					"midpoints" : [ 48.0, 73.0, 48.0, 73.0 ],
					"source" : [ "obj-41", 0 ]
				}

			}
, 			{
				"patchline" : 				{
					"destination" : [ "obj-40", 0 ],
					"midpoints" : [ 48.0, 118.0, 48.0, 118.0 ],
					"source" : [ "obj-43", 0 ]
				}

			}
, 			{
				"patchline" : 				{
					"destination" : [ "obj-139", 0 ],
					"source" : [ "obj-5", 3 ]
				}

			}
, 			{
				"patchline" : 				{
					"destination" : [ "obj-21", 2 ],
					"source" : [ "obj-5", 0 ]
				}

			}
, 			{
				"patchline" : 				{
					"destination" : [ "obj-122", 0 ],
					"source" : [ "obj-89", 0 ]
				}

			}
 ],
		"parameters" : 		{
			"obj-26" : [ "live.gain~", "live.gain~", 0 ],
			"parameterbanks" : 			{

			}
,
			"inherited_shortname" : 1
		}
,
		"dependency_cache" : [ 			{
				"name" : "bd+hh.aiff",
				"bootpath" : "C74:/docs/tutorial-patchers/msp-tut",
				"type" : "AIFF",
				"implicit" : 1
			}
, 			{
				"name" : "snare.aiff",
				"bootpath" : "C74:/docs/tutorial-patchers/msp-tut",
				"type" : "AIFF",
				"implicit" : 1
			}
, 			{
				"name" : "cym.aiff",
				"bootpath" : "C74:/docs/tutorial-patchers/msp-tut",
				"type" : "AIFF",
				"implicit" : 1
			}
, 			{
				"name" : "cello-f2.aif",
				"bootpath" : "C74:/media/msp",
				"type" : "AIFF",
				"implicit" : 1
			}
, 			{
				"name" : "Clap 01.wav",
				"bootpath" : "C74:/packages/MaxIntroLessons/media",
				"type" : "WAVE",
				"implicit" : 1
			}
, 			{
				"name" : "bass.aiff",
				"bootpath" : "C74:/docs/tutorial-patchers/msp-tut",
				"type" : "AIFF",
				"implicit" : 1
			}
, 			{
				"name" : "Snare 01.wav",
				"bootpath" : "C74:/packages/MaxIntroLessons/media",
				"type" : "WAVE",
				"implicit" : 1
			}
, 			{
				"name" : "epno.aiff",
				"bootpath" : "C74:/docs/tutorial-patchers/msp-tut",
				"type" : "AIFF",
				"implicit" : 1
			}
, 			{
				"name" : "vibes-a1.aif",
				"bootpath" : "C74:/media/msp",
				"type" : "AIFF",
				"implicit" : 1
			}
 ],
		"autosave" : 0
	}

}
